<svg width="28" height="28" viewBox="0 0 28 28" fill="none" xmlns="http://www.w3.org/2000/svg">
<rect width="28" height="28" rx="14" fill="white"/>
<path d="M14 3C11.0826 3 8.28473 4.15893 6.22183 6.22183C4.15893 8.28473 3 11.0826 3 14C3 16.9174 4.15893 19.7153 6.22183 21.7782C8.28473 23.8411 11.0826 25 14 25C16.9174 25 19.7153 23.8411 21.7782 21.7782C23.8411 19.7153 25 16.9174 25 14C25 11.0826 23.8411 8.28473 21.7782 6.22183C19.7153 4.15893 16.9174 3 14 3ZM18.2289 17.6056C18.2289 19.4022 17.2511 21.6389 13.2667 23.35C13.6333 18.2533 10.1867 18.84 9.35556 17.2389C9.43125 16.5765 9.67244 15.9438 10.0569 15.3992C10.4414 14.8545 10.9568 14.4154 11.5556 14.1222C9.65887 13.7969 7.89002 12.9506 6.44667 11.6778C6.50778 12.2522 6.78767 12.7827 7.22889 13.1567C6.273 12.7964 5.44708 12.1578 4.85778 11.3233C5.4405 9.40004 6.60595 7.7051 8.19319 6.47252C9.78044 5.23994 11.7112 4.53052 13.7189 4.44222C12.6922 6.12889 11.8856 9.49 13.7189 11.25C11.8367 11.5556 10.6511 9.11111 9.61222 10.0767C8.23111 11.3722 10.0156 13.1444 13.7922 13.8411C17.8133 14.5622 18.2656 15.7722 18.2289 17.6056ZM19.8667 12.7167C19.4756 11.36 20.6244 9.99111 21.9322 8.87889C22.7489 10.0562 23.2689 11.4135 23.4476 12.8351C23.6264 14.2567 23.4587 15.7005 22.9589 17.0433C22.0178 14.7333 20.3067 14.2078 19.8667 12.68V12.7167Z" fill="black"/>
</svg>
